<svg width="100%" height="100%" viewBox="0 0 984 49" fill="none" xmlns="http://www.w3.org/2000/svg">
<path d="M492.077 0.839231L459.744 24.2446L492.077 47.65L524.41 24.2446L492.077 0.839231Z" stroke="white" stroke-miterlimit="10" stroke-linecap="round" stroke-linejoin="round"/>
<path d="M467.341 17.2348L456.581 9.44659L436.137 24.247L456.581 39.0433L467.341 31.2551" stroke="white" stroke-miterlimit="10" stroke-linecap="round" stroke-linejoin="round"/>
<path d="M516.814 17.2348L527.574 9.44659L548.017 24.247L527.574 39.0433L516.814 31.2551" stroke="white" stroke-miterlimit="10" stroke-linecap="round" stroke-linejoin="round"/>
<path class="filled" d="M412.606 14.7362L399.471 24.2438L412.606 33.7513L425.741 24.2438L412.606 14.7362Z" fill="white"/>
<path class="filled" d="M571.548 14.7362L558.413 24.2438L571.548 33.7513L584.683 24.2438L571.548 14.7362Z" fill="white"/>
<path d="M410.401 24.2445H36.8525" stroke="white" stroke-miterlimit="10" stroke-linecap="round" stroke-linejoin="round"/>
<path d="M947.303 24.2445H573.754" stroke="white" stroke-miterlimit="10" stroke-linecap="round" stroke-linejoin="round"/>
<path class="filled" d="M952.806 13.6462L983.289 24.2442L952.806 34.8422L937.863 24.2442L952.806 13.6462Z" fill="white"/>
<path class="filled" d="M31.349 13.6462L0.870605 24.2442L31.349 34.8422L46.2914 24.2442L31.349 13.6462Z" fill="white"/>
</svg>
